<svg width="160" height="35" viewBox="0 0 160 35" fill="none" xmlns="http://www.w3.org/2000/svg">
<g clip-path="url(#clip0_197_948)">
<path d="M17.5099 20.4423H30.7841C31.1769 20.4518 31.5675 20.3827 31.9331 20.2391C32.2987 20.0955 32.6319 19.8802 32.913 19.606C33.1941 19.3318 33.4175 19.0041 33.5701 18.6424C33.7226 18.2806 33.8012 17.892 33.8012 17.4994C33.8012 17.1069 33.7226 16.7183 33.5701 16.3565C33.4175 15.9947 33.1941 15.6671 32.913 15.3929C32.6319 15.1186 32.2987 14.9034 31.9331 14.7598C31.5675 14.6161 31.1769 14.547 30.7841 14.5565H4.23397C3.46525 14.5751 2.73427 14.8933 2.19716 15.4432C1.66004 15.9931 1.35938 16.731 1.35938 17.4994C1.35938 18.2678 1.66004 19.0058 2.19716 19.5557C2.73427 20.1055 3.46525 20.4238 4.23397 20.4423H14.5641" stroke="#140080" stroke-width="2.58253" stroke-miterlimit="10"/>
<path d="M20.4533 18.0647V4.23368C20.4628 3.84122 20.3936 3.45083 20.2499 3.08548C20.1061 2.72013 19.8907 2.3872 19.6163 2.10627C19.3419 1.82535 19.0141 1.60211 18.6521 1.44969C18.29 1.29727 17.9012 1.21875 17.5083 1.21875C17.1155 1.21875 16.7266 1.29727 16.3646 1.44969C16.0025 1.60211 15.6747 1.82535 15.4003 2.10627C15.1259 2.3872 14.9105 2.72013 14.7667 3.08548C14.623 3.45083 14.5539 3.84122 14.5634 4.23368V30.7654C14.5539 31.1579 14.623 31.5483 14.7667 31.9136C14.9105 32.279 15.1259 32.6119 15.4003 32.8928C15.6747 33.1737 16.0025 33.397 16.3646 33.5494C16.7266 33.7018 17.1155 33.7803 17.5083 33.7803C17.9012 33.7803 18.29 33.7018 18.6521 33.5494C19.0141 33.397 19.3419 33.1737 19.6163 32.8928C19.8907 32.6119 20.1061 32.279 20.2499 31.9136C20.3936 31.5483 20.4628 31.1579 20.4533 30.7654V22.1784" stroke="#148B43" stroke-width="2.58253" stroke-miterlimit="10"/>
<path d="M51.5 6.302C51.4548 5.80558 51.254 5.41973 50.8975 5.14444C50.5455 4.86464 50.0423 4.72474 49.3879 4.72474C48.9547 4.72474 48.5937 4.78115 48.3048 4.89397C48.016 5.0068 47.7994 5.16249 47.655 5.36106C47.5106 5.55512 47.4361 5.77851 47.4316 6.03123C47.4226 6.23882 47.4632 6.4216 47.5534 6.57955C47.6482 6.7375 47.7836 6.8774 47.9596 6.99925C48.1401 7.11658 48.3567 7.22038 48.6095 7.31064C48.8622 7.4009 49.1465 7.47987 49.4624 7.54757L50.6538 7.81834C51.3398 7.96727 51.9445 8.16584 52.468 8.41405C52.996 8.66226 53.4383 8.95785 53.7948 9.30083C54.1558 9.64381 54.4289 10.0387 54.6139 10.4855C54.7989 10.9323 54.8937 11.4332 54.8982 11.9883C54.8937 12.8638 54.6726 13.6152 54.2348 14.2425C53.797 14.8698 53.1675 15.3504 52.3461 15.6843C51.5293 16.0183 50.5432 16.1853 49.3879 16.1853C48.2281 16.1853 47.2172 16.0115 46.3553 15.664C45.4933 15.3165 44.8231 14.7885 44.3448 14.08C43.8664 13.3715 43.6204 12.4757 43.6069 11.3926H46.8156C46.8426 11.8393 46.9622 12.2117 47.1743 12.5095C47.3865 12.8074 47.6775 13.033 48.0476 13.1865C48.4222 13.3399 48.8554 13.4166 49.3473 13.4166C49.7986 13.4166 50.1822 13.3557 50.4981 13.2338C50.8185 13.112 51.0645 12.9428 51.236 12.7261C51.4075 12.5095 51.4955 12.2613 51.5 11.9815C51.4955 11.7198 51.4142 11.4964 51.2563 11.3113C51.0983 11.1218 50.8546 10.9593 50.5252 10.8239C50.2003 10.684 49.7851 10.5554 49.2796 10.4381L47.831 10.0996C46.6305 9.82433 45.6851 9.37981 44.9946 8.76605C44.3041 8.14778 43.9612 7.3129 43.9657 6.26139C43.9612 5.40393 44.1913 4.65253 44.6561 4.00719C45.121 3.36184 45.7641 2.85865 46.5854 2.49762C47.4068 2.13659 48.3432 1.95607 49.3947 1.95607C50.4688 1.95607 51.4007 2.13884 52.1904 2.50439C52.9847 2.86542 53.6007 3.37312 54.0385 4.0275C54.4762 4.68187 54.6996 5.44004 54.7087 6.302H51.5ZM56.5905 16.0093V5.61153H59.7383V7.52049H59.8534C60.07 6.88868 60.4355 6.39001 60.95 6.02446C61.4645 5.65891 62.0782 5.47614 62.7913 5.47614C63.5133 5.47614 64.1316 5.66117 64.6461 6.03123C65.1606 6.40129 65.4877 6.89771 65.6276 7.52049H65.736C65.93 6.90222 66.3091 6.40806 66.8732 6.038C67.4373 5.66343 68.103 5.47614 68.8702 5.47614C69.854 5.47614 70.6528 5.79204 71.2665 6.42385C71.8803 7.05115 72.1872 7.91311 72.1872 9.00975V16.0093H68.8769V9.76792C68.8769 9.24894 68.7438 8.85406 68.4775 8.58328C68.2113 8.30799 67.866 8.17035 67.4418 8.17035C66.986 8.17035 66.6273 8.31928 66.3655 8.61713C66.1083 8.91047 65.9797 9.30535 65.9797 9.80177V16.0093H62.798V9.73407C62.798 9.25119 62.6672 8.86985 62.4054 8.59005C62.1437 8.31025 61.7984 8.17035 61.3697 8.17035C61.0809 8.17035 60.8259 8.2403 60.6048 8.3802C60.3836 8.51559 60.2099 8.70964 60.0835 8.96237C59.9617 9.21509 59.9008 9.51294 59.9008 9.85592V16.0093H56.5905ZM77.1694 16.1853C76.506 16.1853 75.9171 16.0747 75.4026 15.8536C74.8927 15.6279 74.4887 15.2895 74.1909 14.8382C73.8976 14.3824 73.7509 13.8115 73.7509 13.1255C73.7509 12.5479 73.8524 12.0605 74.0555 11.6633C74.2586 11.2662 74.5384 10.9435 74.8949 10.6953C75.2514 10.4471 75.6621 10.2598 76.1269 10.1335C76.5918 10.0026 77.0882 9.91459 77.6162 9.86946C78.2074 9.81531 78.6835 9.75889 79.0445 9.70023C79.4056 9.63705 79.6673 9.54904 79.8298 9.43622C79.9968 9.31889 80.0802 9.15416 80.0802 8.94206V8.90821C80.0802 8.56072 79.9607 8.2922 79.7215 8.10266C79.4823 7.91311 79.1596 7.81834 78.7534 7.81834C78.3157 7.81834 77.9637 7.91311 77.6974 8.10266C77.4312 8.2922 77.2619 8.55395 77.1897 8.8879L74.1367 8.77959C74.227 8.14778 74.4594 7.58367 74.834 7.08725C75.2131 6.58632 75.7321 6.19369 76.3909 5.90938C77.0543 5.62055 77.8509 5.47614 78.7805 5.47614C79.4439 5.47614 80.0554 5.55512 80.615 5.71307C81.1746 5.86651 81.662 6.09215 82.0772 6.39001C82.4924 6.68334 82.8128 7.04438 83.0385 7.4731C83.2686 7.90183 83.3837 8.39148 83.3837 8.94206V16.0093H80.2698V14.5606H80.1886C80.0035 14.9126 79.7666 15.2105 79.4778 15.4542C79.1935 15.6979 78.8572 15.8807 78.4691 16.0025C78.0855 16.1244 77.6523 16.1853 77.1694 16.1853ZM78.1916 14.0191C78.5481 14.0191 78.8685 13.9469 79.1528 13.8025C79.4417 13.6581 79.6718 13.4595 79.8433 13.2068C80.0148 12.9495 80.1006 12.6517 80.1006 12.3132V11.3249C80.0058 11.3745 79.8907 11.4196 79.7553 11.4603C79.6244 11.5009 79.48 11.5392 79.3221 11.5753C79.1641 11.6114 79.0017 11.643 78.8347 11.6701C78.6677 11.6972 78.5075 11.722 78.3541 11.7446C78.0427 11.7942 77.7764 11.8709 77.5553 11.9747C77.3387 12.0785 77.1717 12.2139 77.0543 12.3809C76.9415 12.5434 76.8851 12.7374 76.8851 12.9631C76.8851 13.306 77.007 13.5678 77.2506 13.7483C77.4989 13.9288 77.8125 14.0191 78.1916 14.0191ZM85.4077 16.0093V5.61153H88.6232V7.50695H88.7315C88.921 6.82099 89.2302 6.31103 89.6589 5.97707C90.0876 5.63861 90.5863 5.46937 91.1549 5.46937C91.3084 5.46937 91.4663 5.48065 91.6288 5.50322C91.7913 5.52127 91.9424 5.5506 92.0823 5.59122V8.4682C91.9244 8.41405 91.7168 8.37117 91.4596 8.33958C91.2068 8.30799 90.9812 8.2922 90.7826 8.2922C90.39 8.2922 90.0357 8.3802 89.7198 8.5562C89.4084 8.72769 89.1625 8.96913 88.982 9.28053C88.806 9.5874 88.718 9.94844 88.718 10.3636V16.0093H85.4077ZM99.7842 5.61153V8.0485H93.2247V5.61153H99.7842ZM94.5988 3.1204H97.9091V12.7397C97.9091 12.9428 97.9407 13.1075 98.0038 13.2338C98.0715 13.3557 98.1686 13.4437 98.2949 13.4978C98.4213 13.5475 98.5725 13.5723 98.7485 13.5723C98.8748 13.5723 99.008 13.561 99.1479 13.5385C99.2923 13.5114 99.4006 13.4888 99.4728 13.4708L99.9737 15.8604C99.8158 15.9055 99.5924 15.9619 99.3036 16.0296C99.0192 16.0973 98.6785 16.1402 98.2814 16.1582C97.5052 16.1943 96.8395 16.104 96.2844 15.8874C95.7338 15.6663 95.3119 15.3233 95.0185 14.8585C94.7297 14.3937 94.5898 13.8092 94.5988 13.1052V3.1204ZM110.421 8.78636L107.381 8.86759C107.35 8.65097 107.264 8.45918 107.124 8.2922C106.984 8.12071 106.801 7.98758 106.576 7.89281C106.354 7.79352 106.097 7.74388 105.804 7.74388C105.42 7.74388 105.093 7.8206 104.822 7.97404C104.556 8.12748 104.425 8.33507 104.43 8.59682C104.425 8.7999 104.506 8.9759 104.673 9.12483C104.845 9.27376 105.149 9.39335 105.587 9.48361L107.591 9.86269C108.629 10.0613 109.401 10.3907 109.906 10.851C110.416 11.3113 110.673 11.9206 110.678 12.6787C110.673 13.3918 110.461 14.0123 110.041 14.5403C109.626 15.0683 109.058 15.479 108.336 15.7723C107.614 16.0612 106.788 16.2056 105.858 16.2056C104.373 16.2056 103.202 15.901 102.345 15.2917C101.492 14.678 101.004 13.8566 100.883 12.8277L104.152 12.7464C104.224 13.1255 104.412 13.4144 104.714 13.6129C105.016 13.8115 105.402 13.9108 105.872 13.9108C106.296 13.9108 106.641 13.8318 106.907 13.6738C107.174 13.5159 107.309 13.306 107.313 13.0443C107.309 12.8096 107.205 12.6223 107.002 12.4824C106.799 12.338 106.481 12.2252 106.048 12.144L104.233 11.7987C103.191 11.6092 102.415 11.2594 101.905 10.7495C101.395 10.235 101.142 9.58063 101.147 8.78636C101.142 8.09137 101.327 7.49793 101.702 7.00602C102.076 6.5096 102.609 6.13051 103.299 5.86876C103.99 5.60702 104.804 5.47614 105.743 5.47614C107.151 5.47614 108.261 5.77174 109.073 6.36293C109.886 6.94961 110.335 7.75742 110.421 8.78636ZM115.239 16.1853C114.575 16.1853 113.986 16.0747 113.472 15.8536C112.962 15.6279 112.558 15.2895 112.26 14.8382C111.967 14.3824 111.82 13.8115 111.82 13.1255C111.82 12.5479 111.922 12.0605 112.125 11.6633C112.328 11.2662 112.608 10.9435 112.964 10.6953C113.321 10.4471 113.731 10.2598 114.196 10.1335C114.661 10.0026 115.157 9.91459 115.685 9.86946C116.277 9.81531 116.753 9.75889 117.114 9.70023C117.475 9.63705 117.737 9.54904 117.899 9.43622C118.066 9.31889 118.149 9.15416 118.149 8.94206V8.90821C118.149 8.56072 118.03 8.2922 117.791 8.10266C117.552 7.91311 117.229 7.81834 116.823 7.81834C116.385 7.81834 116.033 7.91311 115.767 8.10266C115.5 8.2922 115.331 8.55395 115.259 8.8879L112.206 8.77959C112.296 8.14778 112.529 7.58367 112.903 7.08725C113.282 6.58632 113.801 6.19369 114.46 5.90938C115.124 5.62055 115.92 5.47614 116.85 5.47614C117.513 5.47614 118.125 5.55512 118.684 5.71307C119.244 5.86651 119.731 6.09215 120.146 6.39001C120.562 6.68334 120.882 7.04438 121.108 7.4731C121.338 7.90183 121.453 8.39148 121.453 8.94206V16.0093H118.339V14.5606H118.258C118.073 14.9126 117.836 15.2105 117.547 15.4542C117.263 15.6979 116.926 15.8807 116.538 16.0025C116.155 16.1244 115.722 16.1853 115.239 16.1853ZM116.261 14.0191C116.617 14.0191 116.938 13.9469 117.222 13.8025C117.511 13.6581 117.741 13.4595 117.913 13.2068C118.084 12.9495 118.17 12.6517 118.17 12.3132V11.3249C118.075 11.3745 117.96 11.4196 117.825 11.4603C117.694 11.5009 117.549 11.5392 117.391 11.5753C117.233 11.6114 117.071 11.643 116.904 11.6701C116.737 11.6972 116.577 11.722 116.423 11.7446C116.112 11.7942 115.846 11.8709 115.625 11.9747C115.408 12.0785 115.241 12.2139 115.124 12.3809C115.011 12.5434 114.954 12.7374 114.954 12.9631C114.954 13.306 115.076 13.5678 115.32 13.7483C115.568 13.9288 115.882 14.0191 116.261 14.0191ZM129.387 5.61153V8.0485H122.698V5.61153H129.387ZM124.093 16.0093V5.08352C124.093 4.28022 124.244 3.61456 124.547 3.08655C124.849 2.55403 125.269 2.15689 125.806 1.89515C126.343 1.62888 126.963 1.49575 127.667 1.49575C128.128 1.49575 128.561 1.53186 128.967 1.60406C129.378 1.67176 129.682 1.73268 129.881 1.78684L129.353 4.21027C129.231 4.16965 129.082 4.13581 128.906 4.10873C128.735 4.08165 128.572 4.06811 128.419 4.06811C128.03 4.06811 127.764 4.15386 127.62 4.32535C127.475 4.49684 127.403 4.73151 127.403 5.02936V16.0093H124.093ZM135.504 16.2056C134.417 16.2056 133.478 15.9912 132.688 15.5625C131.903 15.1293 131.298 14.5132 130.874 13.7145C130.454 12.9112 130.245 11.9567 130.245 10.851C130.245 9.77695 130.457 8.83826 130.881 8.03496C131.305 7.22715 131.903 6.59986 132.675 6.15308C133.447 5.70179 134.356 5.47614 135.403 5.47614C136.143 5.47614 136.82 5.59122 137.434 5.82138C138.047 6.05154 138.578 6.39226 139.025 6.84355C139.471 7.29484 139.819 7.85219 140.067 8.51559C140.315 9.17447 140.439 9.93038 140.439 10.7833V11.6092H131.402V9.68669H137.359C137.355 9.33468 137.271 9.02103 137.109 8.74575C136.946 8.47046 136.723 8.25609 136.439 8.10266C136.159 7.9447 135.836 7.86573 135.471 7.86573C135.101 7.86573 134.769 7.94922 134.476 8.11619C134.182 8.27866 133.95 8.50205 133.778 8.78636C133.607 9.06616 133.517 9.38432 133.507 9.74084V11.6972C133.507 12.1214 133.591 12.4937 133.758 12.8141C133.925 13.13 134.162 13.376 134.469 13.552C134.776 13.728 135.141 13.816 135.565 13.816C135.859 13.816 136.125 13.7754 136.364 13.6942C136.603 13.6129 136.809 13.4933 136.98 13.3354C137.152 13.1774 137.28 12.9834 137.366 12.7532L140.405 12.8412C140.279 13.5227 140.002 14.1161 139.573 14.6216C139.149 15.1225 138.591 15.5129 137.901 15.7927C137.21 16.0679 136.412 16.2056 135.504 16.2056ZM147.999 5.61153V8.0485H141.439V5.61153H147.999ZM142.814 3.1204H146.124V12.7397C146.124 12.9428 146.155 13.1075 146.219 13.2338C146.286 13.3557 146.383 13.4437 146.51 13.4978C146.636 13.5475 146.787 13.5723 146.963 13.5723C147.09 13.5723 147.223 13.561 147.363 13.5385C147.507 13.5114 147.615 13.4888 147.688 13.4708L148.189 15.8604C148.031 15.9055 147.807 15.9619 147.518 16.0296C147.234 16.0973 146.893 16.1402 146.496 16.1582C145.72 16.1943 145.054 16.104 144.499 15.8874C143.949 15.6663 143.527 15.3233 143.233 14.8585C142.945 14.3937 142.805 13.8092 142.814 13.1052V3.1204ZM151.712 19.9084C151.315 19.9084 150.94 19.8768 150.588 19.8137C150.236 19.755 149.934 19.676 149.681 19.5767L150.412 17.1736C150.737 17.2819 151.031 17.3451 151.292 17.3632C151.559 17.3812 151.786 17.3383 151.976 17.2345C152.17 17.1352 152.319 16.957 152.423 16.6998L152.551 16.3884L148.855 5.61153H152.321L154.237 13.0308H154.345L156.288 5.61153H159.774L155.855 17.0044C155.665 17.573 155.397 18.0739 155.049 18.5072C154.706 18.9449 154.262 19.2879 153.716 19.5361C153.174 19.7843 152.506 19.9084 151.712 19.9084Z" fill="#1E1E1E"/>
<path d="M43.609 30.313V21.4453H46.7092C47.3269 21.4453 47.8364 21.5522 48.2376 21.7658C48.6389 21.9765 48.9376 22.2608 49.1339 22.6188C49.3302 22.9738 49.4284 23.3678 49.4284 23.8008C49.4284 24.1818 49.3605 24.4965 49.2249 24.7447C49.0921 24.993 48.916 25.1893 48.6966 25.3336C48.4801 25.4779 48.2449 25.5847 47.9908 25.654V25.7406C48.2622 25.7579 48.535 25.8532 48.8092 26.0264C49.0834 26.1996 49.3129 26.4478 49.4976 26.7711C49.6824 27.0944 49.7748 27.4899 49.7748 27.9575C49.7748 28.4021 49.6737 28.8019 49.4717 29.1569C49.2696 29.512 48.9506 29.7934 48.5148 30.0012C48.0789 30.2091 47.5117 30.313 46.8131 30.313H43.609ZM44.6828 29.3604H46.8131C47.5145 29.3604 48.0125 29.2247 48.3069 28.9534C48.6042 28.6792 48.7529 28.3472 48.7529 27.9575C48.7529 27.6573 48.6764 27.3802 48.5234 27.1262C48.3704 26.8693 48.1525 26.6643 47.8696 26.5113C47.5867 26.3555 47.2519 26.2775 46.8651 26.2775H44.6828V29.3604ZM44.6828 25.3423H46.6745C46.9978 25.3423 47.2894 25.2788 47.5492 25.1517C47.8119 25.0247 48.0197 24.8458 48.1727 24.6148C48.3286 24.3839 48.4065 24.1126 48.4065 23.8008C48.4065 23.4111 48.2708 23.0806 47.9995 22.8093C47.7282 22.535 47.298 22.3979 46.7092 22.3979H44.6828V25.3423ZM52.0588 32.807C51.8856 32.807 51.7311 32.7926 51.5955 32.7637C51.4598 32.7377 51.366 32.7118 51.314 32.6858L51.5738 31.7852C51.8221 31.8487 52.0415 31.8718 52.232 31.8544C52.4225 31.8371 52.5914 31.752 52.7386 31.599C52.8887 31.4489 53.0258 31.2049 53.1499 30.8672L53.3404 30.3476L50.881 23.6623H51.9895L53.8254 28.9621H53.8947L55.7305 23.6623H56.839L54.0159 31.2829C53.8889 31.6264 53.7316 31.9107 53.5439 32.1359C53.3563 32.3639 53.1384 32.5328 52.8901 32.6425C52.6448 32.7522 52.3676 32.807 52.0588 32.807ZM67.8175 24.2165C67.7222 23.9249 67.5966 23.6637 67.4408 23.4328C67.2878 23.199 67.1045 22.9998 66.8909 22.8352C66.6801 22.6707 66.4405 22.5451 66.1721 22.4585C65.9036 22.3719 65.6092 22.3286 65.2888 22.3286C64.7634 22.3286 64.2857 22.4643 63.8556 22.7357C63.4255 23.007 63.0834 23.4068 62.8294 23.935C62.5754 24.4633 62.4484 25.1113 62.4484 25.8792C62.4484 26.647 62.5768 27.295 62.8337 27.8233C63.0906 28.3515 63.4385 28.7513 63.8772 29.0227C64.316 29.294 64.8096 29.4297 65.3581 29.4297C65.8661 29.4297 66.3135 29.3214 66.7003 29.1049C67.09 28.8856 67.3931 28.5767 67.6096 28.1783C67.829 27.7771 67.9387 27.3051 67.9387 26.7625L68.2678 26.8317H65.6005V25.8792H68.9779V26.8317C68.9779 27.5621 68.822 28.1971 68.5102 28.7369C68.2014 29.2767 67.7742 29.6953 67.2286 29.9926C66.6859 30.287 66.0624 30.4342 65.3581 30.4342C64.5729 30.4342 63.883 30.2495 63.2884 29.88C62.6966 29.5105 62.2348 28.9852 61.9028 28.3039C61.5737 27.6227 61.4092 26.8144 61.4092 25.8792C61.4092 25.1777 61.503 24.547 61.6906 23.987C61.8812 23.4241 62.1496 22.9449 62.496 22.5495C62.8424 22.154 63.2523 21.8509 63.7257 21.6402C64.1991 21.4295 64.7201 21.3241 65.2888 21.3241C65.7564 21.3241 66.1923 21.3948 66.5964 21.5363C67.0034 21.6748 67.3657 21.8726 67.6832 22.1295C68.0036 22.3835 68.2706 22.688 68.4843 23.0431C68.6979 23.3952 68.8451 23.7864 68.9259 24.2165H67.8175ZM73.3803 30.4515C72.7799 30.4515 72.2531 30.3087 71.7999 30.0229C71.3496 29.7371 70.9974 29.3373 70.7434 28.8235C70.4922 28.3097 70.3667 27.7093 70.3667 27.0223C70.3667 26.3295 70.4922 25.7247 70.7434 25.208C70.9974 24.6913 71.3496 24.2901 71.7999 24.0043C72.2531 23.7185 72.7799 23.5757 73.3803 23.5757C73.9807 23.5757 74.5061 23.7185 74.9564 24.0043C75.4096 24.2901 75.7617 24.6913 76.0129 25.208C76.2669 25.7247 76.3939 26.3295 76.3939 27.0223C76.3939 27.7093 76.2669 28.3097 76.0129 28.8235C75.7617 29.3373 75.4096 29.7371 74.9564 30.0229C74.5061 30.3087 73.9807 30.4515 73.3803 30.4515ZM73.3803 29.5336C73.8364 29.5336 74.2116 29.4167 74.5061 29.1829C74.8005 28.9491 75.0184 28.6416 75.1599 28.2606C75.3013 27.8796 75.372 27.4668 75.372 27.0223C75.372 26.5777 75.3013 26.1635 75.1599 25.7796C75.0184 25.3957 74.8005 25.0854 74.5061 24.8487C74.2116 24.612 73.8364 24.4936 73.3803 24.4936C72.9242 24.4936 72.549 24.612 72.2545 24.8487C71.9601 25.0854 71.7421 25.3957 71.6007 25.7796C71.4593 26.1635 71.3885 26.5777 71.3885 27.0223C71.3885 27.4668 71.4593 27.8796 71.6007 28.2606C71.7421 28.6416 71.9601 28.9491 72.2545 29.1829C72.549 29.4167 72.9242 29.5336 73.3803 29.5336ZM80.6556 30.4515C80.0552 30.4515 79.5284 30.3087 79.0752 30.0229C78.6249 29.7371 78.2727 29.3373 78.0187 28.8235C77.7676 28.3097 77.642 27.7093 77.642 27.0223C77.642 26.3295 77.7676 25.7247 78.0187 25.208C78.2727 24.6913 78.6249 24.2901 79.0752 24.0043C79.5284 23.7185 80.0552 23.5757 80.6556 23.5757C81.256 23.5757 81.7814 23.7185 82.2317 24.0043C82.6849 24.2901 83.0371 24.6913 83.2882 25.208C83.5422 25.7247 83.6692 26.3295 83.6692 27.0223C83.6692 27.7093 83.5422 28.3097 83.2882 28.8235C83.0371 29.3373 82.6849 29.7371 82.2317 30.0229C81.7814 30.3087 81.256 30.4515 80.6556 30.4515ZM80.6556 29.5336C81.1117 29.5336 81.487 29.4167 81.7814 29.1829C82.0758 28.9491 82.2938 28.6416 82.4352 28.2606C82.5766 27.8796 82.6474 27.4668 82.6474 27.0223C82.6474 26.5777 82.5766 26.1635 82.4352 25.7796C82.2938 25.3957 82.0758 25.0854 81.7814 24.8487C81.487 24.612 81.1117 24.4936 80.6556 24.4936C80.1995 24.4936 79.8243 24.612 79.5298 24.8487C79.2354 25.0854 79.0175 25.3957 78.876 25.7796C78.7346 26.1635 78.6639 26.5777 78.6639 27.0223C78.6639 27.4668 78.7346 27.8796 78.876 28.2606C79.0175 28.6416 79.2354 28.9491 79.5298 29.1829C79.8243 29.4167 80.1995 29.5336 80.6556 29.5336ZM87.7404 30.4515C87.1862 30.4515 86.6969 30.3115 86.2726 30.0315C85.8482 29.7487 85.5163 29.3503 85.2767 28.8365C85.0371 28.3198 84.9173 27.7093 84.9173 27.0049C84.9173 26.3064 85.0371 25.7002 85.2767 25.1864C85.5163 24.6726 85.8497 24.2757 86.2769 23.9957C86.7041 23.7157 87.1977 23.5757 87.7577 23.5757C88.1907 23.5757 88.5328 23.6478 88.7839 23.7922C89.0379 23.9336 89.2313 24.0952 89.3641 24.2771C89.4998 24.4561 89.6052 24.6033 89.6802 24.7188H89.7668V21.4453H90.7887V30.313H89.8014V29.2911H89.6802C89.6052 29.4124 89.4983 29.5654 89.3598 29.7501C89.2212 29.932 89.0235 30.095 88.7666 30.2394C88.5097 30.3808 88.1676 30.4515 87.7404 30.4515ZM87.879 29.5336C88.2889 29.5336 88.6353 29.4268 88.9181 29.2132C89.201 28.9967 89.4161 28.6979 89.5633 28.3169C89.7105 27.933 89.7841 27.4899 89.7841 26.9876C89.7841 26.4911 89.712 26.0567 89.5676 25.6843C89.4233 25.3091 89.2097 25.0175 88.9268 24.8097C88.6439 24.599 88.2946 24.4936 87.879 24.4936C87.446 24.4936 87.0852 24.6047 86.7965 24.827C86.5107 25.0464 86.2957 25.3451 86.1513 25.7233C86.0099 26.0986 85.9392 26.52 85.9392 26.9876C85.9392 27.461 86.0113 27.8911 86.1557 28.2779C86.3029 28.6619 86.5194 28.9678 86.8052 29.1959C87.0938 29.421 87.4517 29.5336 87.879 29.5336ZM95.5905 30.4515C94.9497 30.4515 94.3969 30.3101 93.9322 30.0272C93.4703 29.7414 93.1138 29.3431 92.8627 28.8322C92.6144 28.3183 92.4903 27.7208 92.4903 27.0396C92.4903 26.3583 92.6144 25.7579 92.8627 25.2383C93.1138 24.7159 93.4631 24.3089 93.9105 24.0173C94.3608 23.7229 94.8862 23.5757 95.4866 23.5757C95.833 23.5757 96.1751 23.6334 96.5128 23.7489C96.8505 23.8643 97.1579 24.052 97.4351 24.3117C97.7122 24.5687 97.933 24.9093 98.0975 25.3336C98.2621 25.7579 98.3443 26.2804 98.3443 26.901V27.334H93.2177V26.4507H97.3052C97.3052 26.0755 97.2301 25.7406 97.08 25.4462C96.9328 25.1517 96.7221 24.9194 96.4478 24.7491C96.1765 24.5788 95.8561 24.4936 95.4866 24.4936C95.0796 24.4936 94.7274 24.5946 94.4301 24.7967C94.1357 24.9959 93.9091 25.2557 93.7503 25.5761C93.5916 25.8965 93.5122 26.24 93.5122 26.6066V27.1955C93.5122 27.6977 93.5988 28.1235 93.772 28.4728C93.948 28.8192 94.192 29.0833 94.5037 29.2652C94.8155 29.4441 95.1777 29.5336 95.5905 29.5336C95.859 29.5336 96.1014 29.4961 96.3179 29.421C96.5373 29.3431 96.7264 29.2276 96.8852 29.0746C97.0439 28.9188 97.1666 28.7254 97.2532 28.4944L98.2404 28.7715C98.1365 29.1064 97.9619 29.4008 97.7165 29.6548C97.4711 29.906 97.168 30.1023 96.8072 30.2437C96.4464 30.3823 96.0408 30.4515 95.5905 30.4515ZM105.135 23.6623L102.675 30.313H101.636L99.1768 23.6623H100.285L102.121 28.9621H102.19L104.026 23.6623H105.135ZM108.238 30.4689C107.817 30.4689 107.434 30.3895 107.091 30.2307C106.747 30.0691 106.474 29.8367 106.272 29.5336C106.07 29.2276 105.969 28.8581 105.969 28.4252C105.969 28.0441 106.044 27.7353 106.194 27.4986C106.345 27.259 106.545 27.0713 106.796 26.9357C107.047 26.8 107.325 26.699 107.628 26.6326C107.934 26.5633 108.241 26.5084 108.55 26.468C108.954 26.4161 109.282 26.3771 109.533 26.3511C109.787 26.3223 109.972 26.2746 110.087 26.2082C110.205 26.1418 110.265 26.0264 110.265 25.8618V25.8272C110.265 25.4 110.148 25.068 109.914 24.8313C109.683 24.5946 109.332 24.4763 108.862 24.4763C108.374 24.4763 107.991 24.5831 107.714 24.7967C107.437 25.0103 107.242 25.2383 107.13 25.4808L106.16 25.1344C106.333 24.7303 106.564 24.4157 106.853 24.1905C107.144 23.9625 107.462 23.8037 107.805 23.7142C108.152 23.6218 108.492 23.5757 108.827 23.5757C109.041 23.5757 109.286 23.6016 109.563 23.6536C109.843 23.7027 110.113 23.8051 110.373 23.961C110.635 24.1169 110.853 24.3522 111.027 24.6668C111.2 24.9814 111.286 25.4029 111.286 25.9311V30.313H110.265V29.4124H110.213C110.143 29.5567 110.028 29.7111 109.866 29.8757C109.705 30.0402 109.49 30.1802 109.221 30.2957C108.953 30.4111 108.625 30.4689 108.238 30.4689ZM108.394 29.5509C108.798 29.5509 109.139 29.4715 109.416 29.3128C109.696 29.154 109.907 28.9491 110.048 28.6979C110.192 28.4468 110.265 28.1827 110.265 27.9056V26.9703C110.221 27.0223 110.126 27.0699 109.979 27.1132C109.834 27.1536 109.667 27.1897 109.477 27.2214C109.289 27.2503 109.106 27.2763 108.927 27.2994C108.751 27.3196 108.608 27.3369 108.498 27.3513C108.232 27.386 107.984 27.4423 107.753 27.5202C107.525 27.5953 107.34 27.7093 107.199 27.8623C107.06 28.0124 106.991 28.2173 106.991 28.4771C106.991 28.8322 107.122 29.1006 107.385 29.2825C107.651 29.4614 107.987 29.5509 108.394 29.5509Z" fill="#1E1E1E"/>
</g>
<defs>
<clipPath id="clip0_197_948">
<rect width="160" height="35" fill="white"/>
</clipPath>
</defs>
</svg>
